<svg width="52" height="52" viewBox="0 0 52 52" fill="none" xmlns="http://www.w3.org/2000/svg">
<path d="M36.8333 39C34.4283 39 32.5 40.9284 32.5 43.3334C32.5 44.4826 32.9565 45.5848 33.7692 46.3975C34.5818 47.2102 35.684 47.6667 36.8333 47.6667C37.9826 47.6667 39.0848 47.2102 39.8974 46.3975C40.7101 45.5848 41.1666 44.4826 41.1666 43.3334C41.1666 42.1841 40.7101 41.0819 39.8974 40.2692C39.0848 39.4566 37.9826 39 36.8333 39ZM2.16663 4.33337V8.66671H6.49996L14.3 25.1117L11.3533 30.42C11.0283 31.0267 10.8333 31.7417 10.8333 32.5C10.8333 33.6493 11.2898 34.7515 12.1025 35.5642C12.9152 36.3768 14.0174 36.8334 15.1666 36.8334H41.1666V32.5H16.0766C15.933 32.5 15.7952 32.443 15.6936 32.3414C15.592 32.2398 15.535 32.102 15.535 31.9584C15.535 31.85 15.5566 31.7634 15.6 31.6984L17.55 28.1667H33.6916C35.3166 28.1667 36.7466 27.2567 37.4833 25.935L45.24 11.9167C45.3916 11.57 45.5 11.2017 45.5 10.8334C45.5 10.2587 45.2717 9.70764 44.8654 9.30131C44.459 8.89498 43.9079 8.66671 43.3333 8.66671H11.2883L9.25163 4.33337M15.1666 39C12.7616 39 10.8333 40.9284 10.8333 43.3334C10.8333 44.4826 11.2898 45.5848 12.1025 46.3975C12.9152 47.2102 14.0174 47.6667 15.1666 47.6667C16.3159 47.6667 17.4181 47.2102 18.2308 46.3975C19.0434 45.5848 19.5 44.4826 19.5 43.3334C19.5 42.1841 19.0434 41.0819 18.2308 40.2692C17.4181 39.4566 16.3159 39 15.1666 39Z" fill="black"/>
</svg>
