<svg width="52" height="52" viewBox="0 0 52 52" fill="none" xmlns="http://www.w3.org/2000/svg">
<path fill-rule="evenodd" clip-rule="evenodd" d="M34.6666 19.4999C34.6666 21.7985 33.7535 24.0029 32.1282 25.6282C30.5029 27.2535 28.2985 28.1666 25.9999 28.1666C23.7014 28.1666 21.497 27.2535 19.8717 25.6282C18.2463 24.0029 17.3333 21.7985 17.3333 19.4999C17.3333 17.2014 18.2463 14.997 19.8717 13.3717C21.497 11.7463 23.7014 10.8333 25.9999 10.8333C28.2985 10.8333 30.5029 11.7463 32.1282 13.3717C33.7535 14.997 34.6666 17.2014 34.6666 19.4999ZM30.3333 19.4999C30.3333 20.6492 29.8767 21.7514 29.064 22.564C28.2514 23.3767 27.1492 23.8333 25.9999 23.8333C24.8506 23.8333 23.7484 23.3767 22.9358 22.564C22.1231 21.7514 21.6666 20.6492 21.6666 19.4999C21.6666 18.3506 22.1231 17.2484 22.9358 16.4358C23.7484 15.6231 24.8506 15.1666 25.9999 15.1666C27.1492 15.1666 28.2514 15.6231 29.064 16.4358C29.8767 17.2484 30.3333 18.3506 30.3333 19.4999Z" fill="black"/>
<path fill-rule="evenodd" clip-rule="evenodd" d="M26 2.16663C12.8375 2.16663 2.16663 12.8375 2.16663 26C2.16663 39.1625 12.8375 49.8333 26 49.8333C39.1625 49.8333 49.8333 39.1625 49.8333 26C49.8333 12.8375 39.1625 2.16663 26 2.16663ZM6.49996 26C6.49996 30.5283 8.04479 34.697 10.634 38.0076C12.4528 35.6202 14.7986 33.6854 17.4885 32.3542C20.1784 31.023 23.1395 30.3314 26.1408 30.3333C29.1034 30.3298 32.0278 31.003 34.6907 32.3014C37.3537 33.5999 39.685 35.4893 41.5068 37.8256C43.3841 35.3634 44.6481 32.4896 45.1942 29.4419C45.7404 26.3942 45.5529 23.2603 44.6474 20.2994C43.7418 17.3386 42.1443 14.6359 39.9868 12.415C37.8294 10.1942 35.1742 8.51899 32.2408 7.52806C29.3074 6.53714 26.1802 6.25896 23.118 6.71657C20.0558 7.17417 17.1465 8.35439 14.631 10.1596C12.1154 11.9648 10.0659 14.343 8.65196 17.0976C7.23803 19.8521 6.50035 22.9037 6.49996 26ZM26 45.5C21.5234 45.5072 17.1819 43.9672 13.7106 41.1406C15.1077 39.14 16.9675 37.5065 19.1318 36.3793C21.296 35.2521 23.7006 34.6645 26.1408 34.6666C28.5505 34.6645 30.9259 35.2374 33.0698 36.3378C35.2136 37.4382 37.0639 39.0342 38.467 40.9933C34.9688 43.9118 30.5557 45.5071 26 45.5Z" fill="black"/>
</svg>
