<svg width="52" height="52" viewBox="0 0 52 52" fill="none" xmlns="http://www.w3.org/2000/svg">
<path d="M20.5833 34.6667C16.6472 34.6667 13.3163 33.3031 10.5907 30.576C7.865 27.8489 6.50145 24.518 6.5 20.5833C6.49856 16.6487 7.86211 13.3178 10.5907 10.5907C13.3192 7.86356 16.6501 6.5 20.5833 6.5C24.5166 6.5 27.8482 7.86356 30.5782 10.5907C33.3082 13.3178 34.671 16.6487 34.6667 20.5833C34.6667 22.1722 34.4139 23.6708 33.9083 25.0792C33.4028 26.4875 32.7167 27.7333 31.85 28.8167L43.9833 40.95C44.3806 41.3472 44.5792 41.8528 44.5792 42.4667C44.5792 43.0806 44.3806 43.5861 43.9833 43.9833C43.5861 44.3806 43.0806 44.5792 42.4667 44.5792C41.8528 44.5792 41.3472 44.3806 40.95 43.9833L28.8167 31.85C27.7333 32.7167 26.4875 33.4028 25.0792 33.9083C23.6708 34.4139 22.1722 34.6667 20.5833 34.6667ZM20.5833 30.3333C23.2917 30.3333 25.5941 29.3858 27.4907 27.4907C29.3872 25.5956 30.3348 23.2931 30.3333 20.5833C30.3319 17.8736 29.3843 15.5718 27.4907 13.6782C25.597 11.7845 23.2946 10.8362 20.5833 10.8333C17.8721 10.8304 15.5704 11.7787 13.6782 13.6782C11.7859 15.5776 10.8377 17.8793 10.8333 20.5833C10.829 23.2873 11.7773 25.5898 13.6782 27.4907C15.5791 29.3916 17.8808 30.3391 20.5833 30.3333Z" fill="black"/>
</svg>
